# xmcd
#
# Track frame offsets:
#	150
#	32870
#	52292
#	74237
#	106717
#	135885
#	165697
#	179225
#	205920
#	232677
#
# Disc length: 3520
#
# Revision: 1
# Processed by: cddbd v1.5.1PL0 Copyright (c) Steve Scherf et al.
# Submitted via: dBpowerAMP V4.0
# Normalized: r0:TDELIM( - )
#
DISCID=900dbe0a
DTITLE=Various Artist - Gospel Greatest CD 2
DYEAR=1900
DGENRE=Gospel
TTITLE0=The Mighty CLouds Of Joy - Have You Told Him Lately
TTITLE1=Myra Walker Singers - Oh Happy Day
TTITLE2=Barrett Sisters - Up Where We Belong
TTITLE3=Florida Mass Choir - Hold On! Everything's Gonna Be Alright!
TTITLE4=Vickie Winans - Precious Lord
TTITLE5=Evelyn Turrentine Agee - Blessed Assurance
TTITLE6=Clark Sisters feat. Dorinda Clark Cole - Jesus Lifted Me
TTITLE7=Candi Staton - I'm Changed
TTITLE8=Good News Groove - Lift Him Up
TTITLE9=Florida Mass Choir - Jesus, My Burden Bearer
EXTD=Gospel , Flemming Trab
EXTT0=
EXTT1=
EXTT2=
EXTT3=
EXTT4=
EXTT5=
EXTT6=
EXTT7=
EXTT8=
EXTT9=
PLAYORDER=
